<svg width="200" height="200" viewBox="0 0 200 200" fill="none" xmlns="http://www.w3.org/2000/svg">
<mask id="mask0_3_17" style="mask-type:alpha" maskUnits="userSpaceOnUse" x="24" y="15" width="152" height="135">
<path d="M87.0096 22.5C92.7831 12.5 107.217 12.5 112.99 22.5L173.612 127.5C179.386 137.5 172.169 150 160.622 150H39.3782C27.8312 150 20.6143 137.5 26.3878 127.5L87.0096 22.5Z" fill="#FF0000"/>
</mask>
<g mask="url(#mask0_3_17)">
<rect x="18" y="10" width="165" height="179" fill="url(#paint0_linear_3_17)"/>
<path d="M173.269 146.93L155.358 138.057L155.701 132.601C155.873 130.556 154.336 128.847 152.462 128.676H151.948C150.239 128.504 148.708 128.504 147 128.676H146.485C144.776 129.019 143.417 130.384 143.246 131.915L140.343 130.378L140.686 123.728C140.857 121.683 139.32 119.974 137.447 119.803H136.932C135.223 119.631 133.693 119.631 131.984 119.803H131.469C129.424 120.146 128.059 121.848 128.23 123.728V124.407L112.02 116.392V75.4494C112.199 64.7024 106.736 56 99.9144 56C93.0928 56 87.8018 64.7017 87.8018 75.2771V116.392L71.7638 124.407V123.728C71.9354 121.854 70.5697 120.146 68.5245 119.803H68.0099C66.3013 119.631 64.7706 119.631 63.062 119.803H62.5474C60.6737 119.974 59.1366 121.676 59.308 123.728L59.6511 130.378L56.7482 131.915C56.5767 130.378 55.211 129.012 53.5089 128.676H52.9943C51.2857 128.504 49.755 128.504 48.0463 128.676H47.5317C45.6581 128.847 44.121 130.549 44.2924 132.601L44.6421 137.886L26.7313 146.759C25.0226 147.61 24 149.319 24 151.192C24 154.26 26.5597 156.483 29.6274 156.312L87.8016 150.17V163.305V164.67C87.8016 172.858 88.3162 180.537 89.1672 187.359L69.8901 206.979C69.3755 207.658 69.2106 208.688 69.5471 209.71C70.0617 211.419 71.5922 212.27 72.7864 211.755L92.7424 205.442C94.7875 211.584 97.1758 215.166 99.9071 215.166C102.638 215.166 105.027 211.584 107.072 205.442L127.028 211.755C128.222 212.27 129.759 211.412 130.267 209.71C130.61 208.688 130.439 207.665 129.924 206.979L110.66 187.359C111.512 180.537 112.026 172.858 112.026 164.67V163.305V150.17L170.373 156.483C173.44 156.655 176 154.438 176 151.364C176 149.49 174.978 147.782 173.269 146.93Z" fill="white"/>
</g>
<defs>
<linearGradient id="paint0_linear_3_17" x1="100.5" y1="10" x2="100.5" y2="189" gradientUnits="userSpaceOnUse">
<stop stop-color="#0180FF"/>
<stop offset="1" stop-color="#88E1FF"/>
</linearGradient>
</defs>
</svg>
